<?xml version='1.0' encoding='utf-8'?>
<svg xmlns="http://www.w3.org/2000/svg" version="1.1" id="Layer_1" x="0px" y="0px" viewBox="0 0 2560 677.617" enable-background="new 0 0 2560 677.617"> <g> <path d="M2042.177,126.494c2.781-8.277,2.874-16.839,2.034-25.343c-0.557-5.638,1.185-10.928,1.309-16.42 c0.051-2.251,3.913-2.896,3.831-0.129c-0.166,5.608,1.375,11.113,3.007,16.17c2.545,7.887,1.713,28.667,4.098,29.816 c5.802,2.794,8.132,10.387,15.812,10.817c4.046,0.226,5.796,2.885,6.172,7.481c8.943,109.372,2.844,131.887,17.824,145.95 c0.787,0.739,1.835,1.827,1.801,2.716c-0.334,8.646,7.854,14.373,7.164,22.918c18.037-0.679,9.56-2.648,17.744-1.921 c3.474,0.308,6.944,2.328,9.177-2.878c1.328-3.097,4.371-5.22,4.076-9.371c-0.486-6.841,8.684-12.722,8.747-18.57 c2.802-1.006,2.736,3.656,5.081,2.117c1.532-1.006,2.494-2.879,3.653-4.293c1.928,0.531,3.147,1.915,3.546,3.182 c1.975,6.275,10.592,9.397,8.336,17.613c7.866,8.87,3.476,19.98,5.395,29.939c0.326,1.692-0.109,3.653,0.728,5.21 c2.113,3.935,3.086-0.068,4.371,92.794c0.129,9.32,7.188,2.594,7.859,8.385c0.147,1.268,0.839,2.497,1.403,3.687 c3.015,6.357,5.751-1.301,6.751-1.528c6.17-1.4,5.156-5.844,4.854-10.35c-0.509-7.578,2.292-14.999,1.03-22.819 c1.83,1.712,3.352,3.359,3.277,5.575c-0.218,6.439,2.214,12.68,1.228,19.18c-0.46,3.035-0.084,5.728,3.886,6.434 c1,0.178,5.357,6.945,6.681,1.291c1.824-7.789,5.166-15.122,6.752-23.009c1.715-8.525,3.28-6.439,23.337-6.756 c5.209-0.082,5.268-0.138,5.276-5.102c0.016-9.532,0.809-19.047-0.12-28.605c-0.633-6.511,3.696-10.091,10.096-8.664 c6.085,1.356,12.252,1.796,18.407,2.424c14.123,1.441,10.587,10.634,14.37,16.911c3.693,6.126,4.741,12.696,4.602,19.742 c-0.165,8.352,2.477,47.67,1.817,49.679c-0.539,1.638,0.769,2.846,2.724,2.884c10.281,0.199,10.797,1.272,11.016,6.767 c1.346,33.816-2.147,36.798,8.656,36.293c16.094-0.753,19.609-0.815,22.654,3.964c0.735-74.616-8.743-80.659,6.999-82.956 c4.708-0.687,2.639-2.548,3.174-19.961c0.445-14.475,14.515-4.314,22.659-10.005c1.762-1.232,6.322,2.535,5.968,8.53 c-0.25,4.244,0.37,8.421,0.864,12.61c0.31,2.624,1.31,4.702,4.192,5.291c2.876,0.587,4.71,3.298,7.746,3.688 c1.735,0.223,2.488,1.755,2.717,3.391c0.001,0.006,3.121,64.115,3.121,64.115c-0.294,3.018,0.778,4.915,3.604,5.294 c10.453,1.402,1.53,17.156,10.083,29.893c1.587,2.363-3.889,9.408,2.533,10.459c6.882,1.126,7.224,1.412,8.195-2.827 c0.563-2.458,1.532-4.461,3.726-4.974c7.132-1.667,0.452-9.055,2.985-13.568c0.668-1.19,0.156-3.022-0.6-4.48 c-2.343-4.522-1.895-9.473-2.176-14.325c-0.196-3.379,1.487-4.777,4.586-5.285c4.352-0.714,8.647-2.041,13.015-2.304 c7.475-0.451,4.617-8.105,14.138-8.024c4.489,0.038,8.864-3.129,13.525-0.202c1.191,0.747,2.91-0.321,4.07-1.588 c5.963-6.518,7.295,5.236,22.903,4.944c2.839-0.053,5.817-0.668,8.504,0.838c1.662,0.931,4.214,0.109,4.692,3.589 c0.778,5.663,25.06,0.732,28.913,3.993c0.535,0.453,1.68-0.172,2.247-1.205c-0.922-1.922-4.024-1.523-4.708-4.317 c2.002-1.96,5.064,0.332,7.18-1.55c1.797-1.598,3.901-2.622,6.61-2.557c8.555,0.207,6.023-16.694,5.837,180.029 c-0.015,15.887,137.861,10.377-1481.731,10.377c-1164.891,0-1078.209,4.234-1078.21-8.769 c-0.003-302.767-3.948-275.638,9.03-275.785c12.402-0.141,16.111-2.003,16.662,5.893c0.421,6.043-1.092,10.725,4.399,11.732 c5.482,1.005,0.183,7.728,8.819,9.247c7.493,1.318,7.293,1.549,8.722,9.165c1.34,7.138-0.956,16.754,2.369,17.05 c1.467,0.131,3.605,1.369,4.199-1.235c0.335-1.469,1.387-2.088,2.279-1.512c2.849,1.84,7.251-1.772,9.22,2.726 c29.411,7.071,23.69-12.549,34.9-2.33c10.156,9.257,11.194-1.216,15.772,2.157c2.436,1.795,4.639,1.028,4.432-1.357 c-0.789-9.099,3.225-17.72,2.195-26.877c-0.674-5.994,1.427-7.559,7.613-7.878c3.975-0.205,67.112-2.898,78.117,1.99 c7.961,3.536,16.914,1.714,30.517,6.171c3.691,1.209,8.177,3.261,12.417,0.58c0.177-0.112,0.492-0.254,0.609-0.178 c9.215,6.025,10.124-3.805,13.243,1.243c3.512,5.683,7.101,11.183,4.718,18.563c-2.561,7.929-1.359,16.281-1.73,24.449 c-1.048,23.081-0.529,21.108,4.348,20.827c27.096-1.561,27.168,0.726,29.023,4.086c4.039,7.319,1.351,13.967,2.572,19.295 c2.769-4.47,6.354-177.681,8.372-201.481c3.623-42.742-2.436-42.126,10.068-49.443c0.878-0.514,2.615-0.359,2.793-1.403 c0.635-3.738,2.573-5.514,6.358-6.255c4.403-0.862-0.315-9.181,5.652-11.716c3.254-1.383,3.527-29.417,3.645-36.502 c1.144-68.372-0.785-69.463,10.157-70.755c22.346-2.637,23.784-12.105,30.599-5.332c2.862,2.844,8.448,3.905,9.549,0.374 c1.249-4.005,4.59-5.183,8.213-5.784c19.956-3.308,39.731-2.337,59.278,2.806c14.265,3.753,0.998,15.127,13.872,15.412 c34.896,0.771,37.612-0.891,42.49,3.502c18.371,16.545,19.811-71.409,8.29,365.47c-0.561,21.276-0.324,42.582-1.721,63.838 c-0.348,5.298,0.802,6.638,6.094,6.953c2.119,0.126,4.134,1.396,6.441,0.225c3.544-1.8,5.73-6.802,4.806-11.863 c-2.176-11.921,7.016-2.106,11.508-13.832c1.742-4.548,2.183-10.56,7.222-13.661c1.815-1.117,0.18-3.486,1.54-4.839 c2.662-1,2.194,3.183,4.999,2.606c2.321-15.742,2.87-45.892,2.579-50.294c-0.337-5.112,2.936-4.902,1.851-8.241 c-2.506-7.714,1.607-15.668-1.124-23.477c-1.164-3.328,1.803-8.076,4.843-9.092c5.354-1.79,8.063-6.015,9.707-10.797 c1.773-5.157,4.806-4.544,10.251-4.661c6.565-0.141,6.593-0.115,7.265,6.375c0.533,5.149,4.905,7.282,10.054,6.526 c3.5-0.514,11.436-7.114,18.093,7.434c7.617,16.648,1.057,18.876,6.653,19.899c8.628,1.576,6.875,0.359,6.916,35.963 c0.006,5.008-0.279,8.179,2.582,9.763c3.876,2.146,12.27-5.452,9.079-12.368c-2.814-6.098,1.282-1.579,2.58-16.58 c2.131-0.3,4.185,3.155,5.899,0.872c2.148-2.863,6.422-3.666,6.891-8.239c0.719-7.006,1.005-7.027,8.049-8.521 c5.188-1.1-0.569-4.26-0.877-6.097c0.718-3.78,9.146,2.581,13.503-2.215c6.177,1.063,13.06,0.628,16.367,7.758 c2.157,4.651,12.111,1.367,13.172,15.229c0.879,11.482-1.428,18.765-0.337,36.243c0.344,5.513,0.488,5.843,8.524,5.731 c7.337-0.102,7.137,0.55,7.042-18.146c-0.008-1.571-0.255-3.274,0.58-4.565c4.727-7.315,1.938-15.434,2.571-23.167 c1.478-18.058,3.876-8.801,3.833-16.817c-0.029-5.475,6.043-9.109,7.965-18.489c0.938-4.577,5.457-5.92,11.086-4.627 c1.842-1.188-0.056-5.016,2.349-4.811c3.105,0.265,1.59,3.56,1.705,5.499c1.308,21.977,8.264,28.651,6.391,50.614 c-0.407,4.77-0.297,9.519,1.999,14.259c1.794,3.705,0.419,8.319,0.561,12.526c0.235,6.943-0.758,5.683,15.741,7.746 c12.22,1.528,4.018,9.946,10.244,9.617c5.878-0.31,0.991-17.837,4.512-99.809c0.228-5.311,0.797-6.507,6.114-6.703 c6.974-0.257,12.111-2.5,15.171-8.938c0.342-0.719,1.234-1.605,1.932-1.661c30.409-2.461,13.828,6.849,32.084,11.223 c7.445,1.784,8.854,8.473,16.141,8.289c8.637-0.219,17.276,0.406,25.895-1.249c4.289-0.824,8.57,1.467,13.096,1.317 c10.036-0.331,10.047-0.067,10.718-10.202c0.27-4.083,0.407-7.551,6.208-8.255c7.924-0.962,7.955-7.987,8.1-40.488 c0.012-2.646,1.024-5.036,0.83-7.783c-0.203-2.871,0.85-5.833,3.916-7.903c6.093-4.114,7.056-12.153,15.933-11.285 c3.454,0.338,7.663-2.223,9.828,2.767c0.66,1.521,8.295-2.877,8.755,8.801c0.131,3.32,2.68,5.802,3.07,9.326 c2.929,26.514-6.031,38.213,10.923,38.265c31.748,0.097,28.892,1.308,29.005-5.062c1.269-71.741,1.379-37.441,4.536-65.806 c0.371-3.336,1.97-5.219,5.596-5.2c39.868,0.205,31.685-4.147,35.965,17.795c1.865,9.557,1.646,20.433,1.617,55.103 c-0.019,23.702,11.146,2.856,10.663,32.728c-0.987,60.925-2.68,66.513,4.197,66.267c5.087-0.182,9.581,2.722,14.634,3.194 c2.769,0.258,3.83,2.708,3.81,5.451c-0.247,34.176-1.68,40.332,6.362,36.721c3.355-1.507,1.532-1.729,12.151,2.566 c-0.685,5.684,3.169,4.155,6.226,3.945c2.267-0.156,4.958,4.549,6.152,2.422c7.7-13.712,1.599-73.104,4.635-97.623 c0.813-6.568,1.161-6.877,7.932-6.595c3.909,0.163,4.852-0.474,4.749-4.347c-0.374-13.984,5.109-8.68,4.013-20.85 c0,0,1.12-82.273-0.198-108.146c-0.198-3.887,2.155-6.661,2.536-10.16c0.153-1.41,1.711-2.399,2.977-2.223 c3.84,0.534,7.047-1.871,10.949-1.758c8.068,0.234,9.649-9.972,12.174-10.773c4.807-1.525,4.54,2.866,6.073,7.032 c-3.314-0.813-6.562-1.584-9.909,3c6.264-1.72,10.829,2.123,16.025,0.426c0.411-0.134,1.166-0.402,1.198-0.334 c2.933,6.035,13.262-0.371,12.581,8.504c-0.626,8.171,1.145,118.182-0.611,130.885c-1.484,10.736,7.771,15.448,14.262,12.776 c2.884-1.187,5.732-2.526,8.905-2.349c2.264,0.126,4.453-2.211,6.848,0.242c5.869,6.011,6.558,4.316,6.598,20.143 c0.352,138.894-3.674,92.26,14.642,102.125c8.041,4.331,4.551-13.98,11.117-20.196c1.322-1.252,1.776-3.131,1.586-4.939 c-1.201-11.41,0.259-22.86-0.578-34.276c-0.245-3.346-0.003-6.821,1.579-9.749c4.277-7.916,0.329-13.857,3.938-24.683 c0.137-0.411,0.626-0.99,0.501-1.163c-5.245-7.227,5.983-6.971,5.597-12.18c-0.17-2.29,33.824-2.111,40.033-1.97 c9.688,0.221,9.548-1.833,10.627-7.197c1.765-8.773,5.904-0.475,7.012-12.349c0.658-7.049,0.663-14.156,1.168-21.222 c0.438-6.124,1.839-12.177,0.086-18.364c-0.573-2.021-0.408-4.456,1.809-5.992c2.224,0.16,2.198,5.375,4.966,4.297 c1.231-0.479,0.979-1.824,0.745-2.915c-0.505-2.348,0.808-4.02,1.662-6.066c9.195-22.02,5.784-19.328,6.829-22.633 c1.33-4.206,4.156-2.777,3.937-0.023c-0.809,10.172,8.709,26.785,9.343,31.864c0.182,1.46,1.958,2.022,2.495-0.144 c0.988-3.984,2.406-2.194,3.782-0.373c2.739,3.627,0.378,63.296,3.109,73.529c0.614,2.301,1.786,3.318,4.042,3.671 c4.807,0.752,3.844-1.539,3.859-16.344c0.024-21.888-1.298-25.079,4.676-26.128c6.264-1.1-1.091-8.883,7.767-9.259 c8.604-0.366,10.213,0.937,10.087-17.712c-0.046-6.707,3.468-11.579,9.806-13.176c1.709-0.431,3.931-0.246,4.298-2.407 c0.82-4.831,4.689-4.933,8.069-5.195c9.302-0.721,20.702,0.919,20.872,1.919c0.799,4.683,5.772,5.048,8.047,7.934 c5.834,7.4,3.617,5.774,4.279,38.767c0.262,13.079,9.419,3.11,10.723,12.71c1.518,11.163,0.222,21.613,1.285,40.555 c0.174,3.11,0.444,6.099,7.048,5.504c16.121-1.453,32.195,1.125,48.321,0.543c6.429-0.232,12.944-1.542,19.212-0.85 c5.631,0.622,27.582,0.86,28.583,0.823c6.767-0.251,3.572,4.898,5.703,9.27c1.49,3.057,5.07,1.468,5.064-0.841 c-0.02-7.305-1.284,1.133-0.403-15.119c0.49-9.053-5.795-22.915,6.719-21.594c4.035,0.426,7.974-0.152,11.958-0.238 c6.491-0.14,3.105-0.52,3.964-57.732c0.465-30.935-3.102-62.55,0.158-86.103c0.778-5.624,7.586-5.307,6.517-11.41 c-0.139-0.79,1.109-1.583,1.985-1.271c3.44,1.225,5.762-0.577,8.423-2.35c2.385-1.589,7.151-0.872,19.788-0.612 c5.769,0.118,5.067,4.033,8.053,3.928c9.565-0.334,6.982,7.41,7.876,33.887c1.489,44.077-1.196,87.053,3.066,138.204 c0.476,5.712,2.228,5.2,4.295,5.251c2.855,0.07,3.907,7.544,2.54-120.96c-0.384-36.129-1.33-33.386,2.552-38.722 c10.895-14.975,4.548-12.224,9.027-20.656c9.017-16.978,17.614-15.843,23.151-9.169c4.59,5.532,10.411,10.486,11.111,18.426 c4.313,3.142,2.87,9.405,7.256,12.851c3.678,2.89,1.36,1.204,4.115,133.943c1.027,49.452,2.592,54.706,1.401,69.089 c-0.647,7.823,2.147,11.571,9.474,13.123c5.237,1.109,10.003,3.785,15.747,3.546c4.246-0.177,8.301,2.653,12.013,4.859 c9.677,5.752,2.779,21.513,10.876,16.811c28.758-16.7,21.047,41.792,19.63-125.659c-0.08-9.366-2.636-10.305,8.398-16.463 c1.124-0.627,2.152-0.194,3.175,0.205c4.483,1.749,9.075,1.664,13.783,1.191c12.881-1.293,16.733,4.809,21.211-5.104 c2.395-5.302,12.649-5.329,16.973-1.795c2.237-2.082,2.367-4.484,1.571-7.338c-2.455-8.812,1.862-22.294-1.475-34.814 c-0.28-1.051-0.412-2.247-0.216-3.303c1.554-8.366-2.149-16.938,1.014-25.227c-2.249-2.731,0.734-5.065,0.633-7.702 c-0.096-2.504-1.181-4.774-0.725-7.499c0.578-3.452-0.283-7.118-0.624-10.649c-0.235-2.433,2.749-5.162,1.491-8.61 c-0.488-1.339,1.161-3.431-1.572-4.022c-0.259-0.056-0.588-1.051-0.542-1.081c4.994-3.22-1.023-6.484,0.051-9.839 c1.096-3.423,1.341-7.107,3.004-10.395c0.266-0.526,0.502-1.472,0.233-1.798c-2.451-2.987-3.291-6.065-2.537-10.083 c0.578-3.076-0.575-6.538,0.524-9.625c0.758-2.128-6.812-7.351,1.512-13.108c16.935-11.714,18.175-11.102,18.451-15.562 c0.285-4.615,1.209-5.274,5.7-5.415c5.308-0.167,10.584-0.196,15.769,1.515c29.665,9.792,22.136-22.75,25.134,77.671 c4.428,148.393,0.839,181.643,7.206,191.726c3.678,5.825,6.574,0.508,11.963,5.479c2.028,1.871,3.609-0.067,5.159-1.274 c2.982-2.321-1.35-1.809-1.286-4.395c0.297-11.904-4.518-39.505,2.495-43.379c0.743-0.41,1.757-1.086,1.867-1.767 c1.237-7.639,6.582-4.906,21.44-6.851c17.394-2.278,9.869,12.242,14.235,53.077c0.747,6.986-2.028,10.514,0.796,14.726 c2.226-0.687,1.85-2.439,1.859-3.89c0.348-52.525,7.555-341.166,7.659-347.055c0.464-26.391-1.195-29.243,5.141-33.409 c3.839-2.524,8.273-4.669,6.337-10.805c-1.52-4.817,15.023-2.832,11.816-14.908c-1.007-3.795,0.153-1.428,3.516-32.781 c0.116-1.078-0.191-2.255,1.706-2.787c1.754,12.215,2.347,24.552,5.281,36.522c-2.308,1.812-1.105,2.972,0.595,4.284 C2044.119,128.924,2042.851,127.771,2042.177,126.494z"/> <path d="M1180.907,292.723c-1.256-0.466-0.512-2.235,1.183-2.262C1184.169,290.428,1182.451,293.296,1180.907,292.723z"/> <path d="M73.763,445.488c-0.333,0.22-0.717,0.674-0.987,0.614c-0.785-0.174-0.822-0.844-0.432-1.394 c0.177-0.249,0.701-0.252,1.067-0.366C73.529,444.723,73.646,445.105,73.763,445.488z"/> <path d="M2047.221,65.902c-1.179,0.669-1.727-0.608-0.102-0.523C2047.162,65.381,2047.187,65.719,2047.221,65.902z"/> <path d="M85.258,441.155c-0.817,0.064-1.706,0.438-2.351-0.381c-1.013-1.287,2.377-2.192,2.25,0.473L85.258,441.155z"/> <path d="M2522.031,493.829c0.176-0.343,0.285-0.876,0.549-0.969C2523.581,492.507,2524.692,494.993,2522.031,493.829z"/> <path d="M2533.77,493.877c-0.695,0.325-0.423,0.349-1.043-0.096C2533.464,493.456,2533.188,493.456,2533.77,493.877z"/> <path d="M2035.451,61.825c1.245-1.755,1.719,1.085,0.351,0.441C2035.65,62.194,2035.566,61.976,2035.451,61.825z"/> <polygon points="1195.045,304.677 1194.944,304.314 1195.267,304.373 "/> <path d="M85.158,441.247c0,0,0.11-0.102,0.105-0.097C85.258,441.155,85.158,441.247,85.158,441.247z"/> </g> </svg>